<svg width="16" height="16" viewBox="0 0 16 16" fill="none" xmlns="http://www.w3.org/2000/svg">
<path d="M3.5 12.75C3.225 12.75 2.975 12.7 2.725 12.625C1.7 12.275 1 11.325 1 10.25C1 9.525 1.3 8.85 1.85 8.375C2 8.25 2.15 8.15 2.325 8.05L2.5 7.475C2.925 6.025 4.25 5.025 5.75 5.025C5.9 5.025 6.05 5.025 6.225 5.075C6.375 5.1 6.5 5.125 6.625 5.15L6.7 5.025C7.3 3.925 8.45 3.25 9.7 3.25C11.6 3.25 13.125 4.8 13.125 6.675C13.125 6.775 13.125 6.85 13.1 6.95V7.025C13.25 7.075 13.4 7.15 13.525 7.225C14.45 7.75 15 8.725 15 9.8C15 11.175 14.05 12.375 12.7 12.675C12.475 12.725 12.25 12.75 12.05 12.75H3.5Z" fill="white"/>
<path d="M9.675 3.75C11.3 3.75 12.6 5.075 12.6 6.675V6.9C11.925 6.95 11.3 7.225 10.825 7.65C11.175 7.45 11.6 7.325 12.05 7.325C12.225 7.325 12.375 7.35 12.525 7.375C12.8 7.425 13.05 7.525 13.275 7.65C14 8.075 14.5 8.875 14.5 9.775C14.5 10.95 13.675 11.925 12.6 12.175C12.425 12.225 12.25 12.25 12.05 12.25H3.5C3.275 12.25 3.075 12.225 2.875 12.15C2.075 11.875 1.5 11.125 1.5 10.25C1.5 9.65 1.775 9.1 2.175 8.75C2.375 8.575 2.575 8.45 2.825 8.375C3.025 8.3 3.25 8.25 3.475 8.25C4.125 8.25 4.7 8.55 5.05 9.025H5.075C4.65 8.25 3.85 7.7 2.925 7.6C3.275 6.4 4.375 5.5 5.7 5.5C5.85 5.5 5.975 5.525 6.1 5.525C6.375 5.575 6.625 5.625 6.85 5.75C7.725 6.15 8.375 6.975 8.525 7.975V7.95C8.525 6.825 7.95 5.825 7.075 5.25C7.625 4.35 8.575 3.75 9.675 3.75ZM9.675 2.75C8.325 2.75 7.075 3.45 6.35 4.575C6.325 4.575 6.3 4.575 6.275 4.55C6.075 4.525 5.9 4.5 5.725 4.5C4 4.5 2.475 5.65 2 7.325L1.875 7.725C1.75 7.8 1.625 7.9 1.525 8C0.875 8.55 0.5 9.375 0.5 10.25C0.5 11.55 1.325 12.7 2.55 13.1C2.85 13.2 3.175 13.25 3.5 13.25H12.05C12.3 13.25 12.575 13.225 12.825 13.15C14.4 12.775 15.5 11.4 15.5 9.775C15.5 8.55 14.825 7.4 13.775 6.775L13.625 6.7V6.675C13.6 4.525 11.85 2.75 9.675 2.75Z" fill="#75D6FF"/>
</svg>
