<svg width="14" height="10" viewBox="0 0 14 10" fill="none" xmlns="http://www.w3.org/2000/svg">
<path d="M3.03002 3.50699C3.14936 2.53813 3.61887 1.64635 4.35011 0.999648C5.08135 0.352947 6.02384 -0.00402832 7.00002 -0.00402832C7.97621 -0.00402832 8.9187 0.352947 9.64994 0.999648C10.3812 1.64635 10.8507 2.53813 10.97 3.50699C11.8123 3.56233 12.6 3.9432 13.1665 4.56901C13.7329 5.19481 14.0337 6.01645 14.0051 6.86006C13.9765 7.70367 13.6208 8.50306 13.0133 9.08909C12.4058 9.67511 11.5941 10.0018 10.75 9.99999H3.25002C2.40593 10.0018 1.59425 9.67511 0.986742 9.08909C0.379231 8.50306 0.0235526 7.70367 -0.00503112 6.86006C-0.0336149 6.01645 0.267139 5.19481 0.83359 4.56901C1.40004 3.9432 2.18775 3.56233 3.03002 3.50699Z" fill="url(#paint0_linear_2356_3)"/>
<path d="M6.5 6.75C6.5 7.61195 6.15759 8.4386 5.5481 9.0481C4.9386 9.65759 4.11195 10 3.25 10C2.38805 10 1.5614 9.65759 0.951903 9.0481C0.34241 8.4386 0 7.61195 0 6.75C0 5.88805 0.34241 5.0614 0.951903 4.4519C1.5614 3.84241 2.38805 3.5 3.25 3.5C4.11195 3.5 4.9386 3.84241 5.5481 4.4519C6.15759 5.0614 6.5 5.88805 6.5 6.75Z" fill="url(#paint1_linear_2356_3)" fill-opacity="0.3"/>
<path d="M7.00003 8C7.7701 7.9999 8.52377 7.77753 9.17055 7.35957C9.81732 6.94161 10.3297 6.34584 10.6462 5.6438C10.9626 4.94176 11.0697 4.1633 10.9546 3.40189C10.8394 2.64048 10.5069 1.92849 9.99703 1.35142C9.48713 0.774347 8.8215 0.356728 8.08006 0.148707C7.33862 -0.0593132 6.5529 -0.0488915 5.81723 0.178721C5.08157 0.406334 4.42725 0.841462 3.93284 1.43185C3.43842 2.02225 3.12494 2.7428 3.03003 3.507C3.10336 3.50233 3.1767 3.5 3.25003 3.5C3.7792 3.49988 4.3004 3.62898 4.76834 3.87607C5.23628 4.12317 5.63681 4.48079 5.93512 4.91786C6.23343 5.35493 6.42051 5.85824 6.4801 6.38404C6.53968 6.90985 6.46997 7.44226 6.27703 7.935C6.51236 7.97833 6.75336 8 7.00003 8Z" fill="url(#paint2_linear_2356_3)" fill-opacity="0.3"/>
<path d="M7.00003 8C7.7701 7.9999 8.52377 7.77753 9.17055 7.35957C9.81732 6.94161 10.3297 6.34584 10.6462 5.6438C10.9626 4.94176 11.0697 4.1633 10.9546 3.40189C10.8394 2.64048 10.5069 1.92849 9.99703 1.35142C9.48713 0.774347 8.8215 0.356728 8.08006 0.148707C7.33862 -0.0593132 6.5529 -0.0488915 5.81723 0.178721C5.08157 0.406334 4.42725 0.841462 3.93284 1.43185C3.43842 2.02225 3.12494 2.7428 3.03003 3.507C3.10336 3.50233 3.1767 3.5 3.25003 3.5C3.7792 3.49988 4.3004 3.62898 4.76834 3.87607C5.23628 4.12317 5.63681 4.48079 5.93512 4.91786C6.23343 5.35493 6.42051 5.85824 6.4801 6.38404C6.53968 6.90985 6.46997 7.44226 6.27703 7.935C6.51236 7.97833 6.75336 8 7.00003 8Z" fill="url(#paint3_radial_2356_3)"/>
<path d="M3.03002 3.50699C3.14936 2.53813 3.61887 1.64635 4.35011 0.999648C5.08135 0.352947 6.02384 -0.00402832 7.00002 -0.00402832C7.97621 -0.00402832 8.9187 0.352947 9.64994 0.999648C10.3812 1.64635 10.8507 2.53813 10.97 3.50699C11.8123 3.56233 12.6 3.9432 13.1665 4.56901C13.7329 5.19481 14.0337 6.01645 14.0051 6.86006C13.9765 7.70367 13.6208 8.50306 13.0133 9.08909C12.4058 9.67511 11.5941 10.0018 10.75 9.99999H3.25002C2.40593 10.0018 1.59425 9.67511 0.986742 9.08909C0.379231 8.50306 0.0235526 7.70367 -0.00503112 6.86006C-0.0336149 6.01645 0.267139 5.19481 0.83359 4.56901C1.40004 3.9432 2.18775 3.56233 3.03002 3.50699Z" fill="url(#paint4_radial_2356_3)" fill-opacity="0.5"/>
<defs>
<linearGradient id="paint0_linear_2356_3" x1="0.500025" y1="1.87499" x2="6.94803" y2="11.254" gradientUnits="userSpaceOnUse">
<stop stop-color="#0FAFFF"/>
<stop offset="1" stop-color="#367AF2"/>
</linearGradient>
<linearGradient id="paint1_linear_2356_3" x1="-3.48492e-08" y1="4.613" x2="4.382" y2="8.492" gradientUnits="userSpaceOnUse">
<stop stop-color="white"/>
<stop offset="1" stop-color="#FCFCFC" stop-opacity="0"/>
</linearGradient>
<linearGradient id="paint2_linear_2356_3" x1="4.41203" y1="0.45" x2="5.47003" y2="5.965" gradientUnits="userSpaceOnUse">
<stop stop-color="white"/>
<stop offset="1" stop-color="#FCFCFC" stop-opacity="0"/>
</linearGradient>
<radialGradient id="paint3_radial_2356_3" cx="0" cy="0" r="1" gradientUnits="userSpaceOnUse" gradientTransform="translate(3.34203 6.55) rotate(-22.9258) scale(4.87756 4.36018)">
<stop offset="0.412" stop-color="#2C87F5"/>
<stop offset="1" stop-color="#2C87F5" stop-opacity="0"/>
</radialGradient>
<radialGradient id="paint4_radial_2356_3" cx="0" cy="0" r="1" gradientUnits="userSpaceOnUse" gradientTransform="translate(6.41702 -0.625005) rotate(64.0336) scale(12.3236 87.8769)">
<stop offset="0.5" stop-color="#DD3CE2" stop-opacity="0"/>
<stop offset="1" stop-color="#DD3CE2"/>
</radialGradient>
</defs>
</svg>
